<?xml version="1.0" encoding="utf-8"?>
<!-- Generator: Adobe Illustrator 16.0.0, SVG Export Plug-In . SVG Version: 6.00 Build 0)  -->
<!DOCTYPE svg PUBLIC "-//W3C//DTD SVG 1.1//EN" "http://www.w3.org/Graphics/SVG/1.1/DTD/svg11.dtd">
<svg version="1.1" id="Calque_1" xmlns="http://www.w3.org/2000/svg" xmlns:xlink="http://www.w3.org/1999/xlink" x="0px" y="0px"
	 width="32.65px" height="33.2px" viewBox="0 0 32.65 33.2" enable-background="new 0 0 32.65 33.2" xml:space="preserve">
<g>
	<path fill="#4C4B4B" d="M0,16.5c0-2.566,0.441-4.866,1.325-6.9c0.883-2.033,2.066-3.766,3.55-5.2
		c1.483-1.433,3.216-2.525,5.2-3.275C12.058,0.375,14.15,0,16.35,0s4.282,0.375,6.25,1.125c1.966,0.75,3.691,1.842,5.175,3.275
		c1.482,1.434,2.666,3.167,3.55,5.2c0.883,2.034,1.325,4.333,1.325,6.9c0,2.567-0.442,4.875-1.325,6.925
		c-0.884,2.05-2.067,3.8-3.55,5.25c-1.483,1.45-3.209,2.567-5.175,3.351c-1.968,0.782-4.05,1.174-6.25,1.174
		s-4.292-0.392-6.275-1.174c-1.983-0.783-3.717-1.9-5.2-3.351c-1.484-1.45-2.667-3.2-3.55-5.25C0.441,21.375,0,19.067,0,16.5z
		 M2.9,16.5c0,2.1,0.35,4.018,1.05,5.75c0.7,1.733,1.658,3.217,2.875,4.449c1.217,1.234,2.642,2.193,4.275,2.875
		c1.633,0.684,3.383,1.025,5.25,1.025c1.866,0,3.616-0.342,5.25-1.025c1.633-0.682,3.05-1.641,4.25-2.875
		c1.2-1.232,2.149-2.716,2.85-4.449c0.7-1.732,1.05-3.65,1.05-5.75c0-2.1-0.35-4.008-1.05-5.725s-1.649-3.183-2.85-4.4
		c-1.2-1.216-2.617-2.158-4.25-2.825c-1.634-0.667-3.384-1-5.25-1c-1.867,0-3.617,0.333-5.25,1C9.466,4.217,8.042,5.159,6.825,6.375
		c-1.217,1.217-2.175,2.684-2.875,4.4C3.25,12.492,2.9,14.4,2.9,16.5z M7.45,16.55c0-1.466,0.258-2.792,0.775-3.975
		c0.516-1.183,1.216-2.183,2.1-3c0.883-0.816,1.892-1.45,3.025-1.9C14.483,7.225,15.667,7,16.9,7c1.5,0,2.75,0.284,3.75,0.85
		c1,0.567,1.9,1.25,2.7,2.05l-2.25,2.5c-0.634-0.6-1.25-1.058-1.851-1.375c-0.6-0.316-1.283-0.475-2.05-0.475
		c-1.7,0-3.033,0.567-4,1.7c-0.967,1.134-1.45,2.567-1.45,4.3c0,1.934,0.475,3.468,1.425,4.601C14.125,22.284,15.4,22.85,17,22.85
		c0.966,0,1.8-0.183,2.5-0.55c0.7-0.366,1.383-0.833,2.051-1.399L23.5,23.7c-0.934,0.768-1.925,1.409-2.975,1.926
		c-1.05,0.518-2.275,0.775-3.675,0.775c-1.334,0-2.575-0.226-3.725-0.676c-1.15-0.449-2.142-1.1-2.975-1.949
		c-0.833-0.851-1.492-1.883-1.975-3.101C7.691,19.459,7.45,18.084,7.45,16.55z"/>
</g>
</svg>
